Coordinates
version=1
nRows=16
nColumns=28
inDegrees=yes

Units are S.I. units (second, meters, Newtons, ...)
Angles are in degrees.

endheader
time	pelvis_tilt	pelvis_list	pelvis_rotation	pelvis_tx	pelvis_ty	pelvis_tz	hip_flexion_r	hip_adduction_r	hip_rotation_r	knee_angle_r	ankle_angle_r	subtalar_angle_r	mtp_angle_r	hip_flexion_l	hip_adduction_l	hip_rotation_l	knee_angle_l	socket_flexion	socket_adduction	socket_rotation	socket_tx	socket_ty	socket_tz	foot_flex	lumbar_extension	lumbar_bending	lumbar_rotation
      0.93750000	      3.94338426	     -4.35253506	     -2.16762016	      0.41982220	      1.03646811	      0.30524007	     -0.31041932	      8.90716308	     -1.75287037	    -14.73493428	     10.20152558	     -9.65810287	      4.49702212	     10.42890933	     -9.06396540	     -1.53243549	    -67.66588666	    -10.54646682	      0.36929313	     15.12321459	      0.00000000	      0.02571319	      0.00000000	     -0.06129116	    -11.37758300	      4.18079052	      4.45599711
      0.94166667	      3.92946741	     -3.97868793	     -2.43184339	      0.42470800	      1.03744533	      0.30573613	     -0.85354720	      8.47528903	     -1.55533994	    -14.24386630	     10.10194651	     -9.10934861	      4.70666282	     10.86431271	     -8.54594046	     -1.45668187	    -67.02410094	    -10.47496766	      0.53217776	     14.92520429	      0.00000000	      0.02556509	      0.00000000	     -0.08584219	    -11.32982607	      3.62392963	      5.08280354
      0.94583333	      3.94188753	     -3.94273292	     -2.66911145	      0.42902288	      1.03810087	      0.30617486	     -1.20000108	      8.39866565	     -1.60254005	    -14.14074955	     10.11162272	     -9.05970926	      4.71651116	     11.43406631	     -8.50130611	     -1.46059829	    -66.71819054	    -10.52584559	      0.54685983	     14.94961880	      0.00000000	      0.02562089	      0.00000000	     -0.06306937	    -11.45230721	      3.58839035	      5.10319911
      0.95000000	      3.88592898	     -3.70989705	     -2.80315953	      0.43386867	      1.03886093	      0.30657025	     -1.75321914	      8.14550647	     -1.40697009	    -13.51614679	     10.04264813	     -8.73022848	      4.75182452	     12.06878967	     -8.22093532	     -1.42388096	    -66.33128841	    -10.55172448	      0.50905197	     14.96251245	      0.00000000	      0.02617206	      0.00000000	     -0.06678428	    -11.35739851	      3.25123522	      5.26086891
      0.95416667	      3.90488340	     -3.69929409	     -3.03185595	      0.43812207	      1.03942191	      0.30693178	     -2.06776439	      8.08879507	     -1.46476944	    -13.49539423	     10.04023711	     -8.70396016	      4.75622638	     12.61762104	     -8.19397860	     -1.42315973	    -65.97786313	    -10.61460303	      0.48469695	     14.95898755	      0.00000000	      0.02619820	      0.00000000	     -0.03494235	    -11.49357741	      3.23656504	      5.28497491
      0.95833333	      3.81512826	     -3.44395641	     -3.17937581	      0.44305236	      1.04008575	      0.30733409	     -2.59924319	      7.80725357	     -1.25322901	    -12.83508180	      9.93171342	     -8.33785107	      4.79218907	     13.21668797	     -7.88747233	     -1.39405800	    -65.42167148	    -10.59429937	      0.50072054	     14.94429458	      0.00000000	      0.02652632	      0.00000000	     -0.04782605	    -11.35307710	      2.88413450	      5.53292763
      0.96250000	      3.76752012	     -3.29227737	     -3.41132235	      0.44768716	      1.04065492	      0.30776408	     -2.99952640	      7.60848923	     -1.16661435	    -12.50706511	      9.82659773	     -8.09492101	      4.83971388	     13.69770974	     -7.68153667	     -1.36967897	    -64.75155389	    -10.55495635	      0.55404521	     14.86061985	      0.00000000	      0.02630719	      0.00000000	     -0.04025011	    -11.33126501	      2.65578589	      5.78072360
      0.96666667	      3.78787028	     -3.28281148	     -3.63262466	      0.45181982	      1.04109749	      0.30811324	     -3.30223448	      7.54934684	     -1.21830003	    -12.48474668	      9.83067963	     -8.06672368	      4.84991137	     14.24828841	     -7.66016391	     -1.36457254	    -64.34838985	    -10.63137024	      0.52301302	     14.84761848	      0.00000000	      0.02651103	      0.00000000	     -0.01069726	    -11.47903561	      2.64426064	      5.81726428
      0.97083333	      3.78877726	     -2.99947252	     -3.97819810	      0.45674234	      1.04175943	      0.30862240	     -3.81508546	      7.17918618	     -0.98225355	    -12.05595025	      9.71838943	     -7.56269457	      5.19054498	     14.35946072	     -7.20987462	     -1.22139317	    -63.04415286	    -10.40645773	      0.86386566	     14.48019395	      0.00000000	      0.02506780	      0.00000000	     -0.05737583	    -11.44321462	      2.18930736	      6.57127464
      0.97500000	      3.75123050	     -2.93196045	     -4.10074222	      0.46124871	      1.04212077	      0.30889409	     -4.21901985	      7.07639719	     -0.94931528	    -11.73241779	      9.72959783	     -7.40549231	      5.25175523	     14.92596812	     -7.12963483	     -1.19512394	    -62.51332163	    -10.44006667	      0.78528080	     14.51674844	      0.00000000	      0.02528457	      0.00000000	     -0.04634531	    -11.45363255	      2.09049187	      6.61229475
      0.97916667	      3.77373459	     -2.94279099	     -4.29724979	      0.46535457	      1.04241350	      0.30916335	     -4.51422654	      7.03110393	     -1.00293452	    -11.73024437	      9.73174223	     -7.38696519	      5.25883703	     15.47660805	     -7.13357695	     -1.18613258	    -62.10484381	    -10.54978478	      0.71001313	     14.49975062	      0.00000000	      0.02568371	      0.00000000	     -0.00886816	    -11.59787932	      2.08472023	      6.62377347
      0.98333333	      3.62952535	     -2.81197879	     -4.41429681	      0.47041232	      1.04265203	      0.30949455	     -4.98706533	      6.87582728	     -0.84558305	    -11.07607805	      9.64491916	     -7.05749455	      5.32980764	     15.96465928	     -6.98300943	     -1.15960501	    -61.20989913	    -10.46449759	      0.69079493	     14.51036403	      0.00000000	      0.02527479	      0.00000000	     -0.01746785	    -11.39208642	      1.90292584	      6.79257221
      0.98750000	      3.58722329	     -2.77718894	     -4.58457889	      0.47481606	      1.04286251	      0.30974419	     -5.33890922	      6.79205126	     -0.79752085	    -10.83713951	      9.59150783	     -6.91269789	      5.38116324	     16.45183553	     -6.92727357	     -1.13629838	    -60.50453595	    -10.45726362	      0.64837045	     14.48490113	      0.00000000	      0.02521957	      0.00000000	     -0.00506490	    -11.41935011	      1.84373876	      6.91264109
      0.99166667	      3.50510421	     -2.72227256	     -4.75102229	      0.47958009	      1.04301041	      0.31011964	     -5.74519390	      6.70071802	     -0.69559303	    -10.43649670	      9.53658772	     -6.70989767	      5.46026174	     16.86833662	     -6.85541248	     -1.09619214	    -59.61739316	    -10.42392238	      0.64695415	     14.45367356	      0.00000000	      0.02478742	      0.00000000	     -0.00806882	    -11.32339141	      1.74063271	      7.08828175
      0.99583333	      3.52279193	     -2.74033753	     -4.91538576	      0.48360859	      1.04312598	      0.31030642	     -6.02966818	      6.65499504	     -0.73148371	    -10.43523802	      9.53587424	     -6.69056129	      5.47230587	     17.41395209	     -6.87376635	     -1.08827814	    -59.16166105	    -10.54904395	      0.55089312	     14.42421686	      0.00000000	      0.02532856	      0.00000000	      0.02622241	    -11.48432234	      1.73524116	      7.11395222
      1.00000000	      3.37030478	     -2.69823513	     -5.01762356	      0.48868921	      1.04308413	      0.31059923	     -6.48461062	      6.59745095	     -0.58528207	     -9.82402793	      9.51516716	     -6.43199620	      5.55835413	     17.79223372	     -6.81383267	     -1.02457876	    -58.03803078	    -10.41967611	      0.51972407	     14.47261856	      0.00000000	      0.02437886	      0.00000000	      0.01605895	    -11.26025217	      1.66656942	      7.31446138
